<?xml version="1.0" encoding="UTF-8" standalone="no" ?>
<!DOCTYPE svg PUBLIC "-//W3C//DTD SVG 1.1//EN" "http://www.w3.org/Graphics/SVG/1.1/DTD/svg11.dtd">
<svg xmlns="http://www.w3.org/2000/svg" xmlns:xlink="http://www.w3.org/1999/xlink" version="1.1" width="1280" height="1024" viewBox="0 0 1280 1024" xml:space="preserve">
<desc>Created with Fabric.js 5.3.0</desc>
<defs>
</defs>
<g transform="matrix(1 0 0 1 640 512)" id="background-logo"  >
<rect style="stroke: none; stroke-width: 0; stroke-dasharray: none; stroke-linecap: butt; stroke-dashoffset: 0; stroke-linejoin: miter; stroke-miterlimit: 4; fill: rgb(11,5,0); fill-rule: nonzero; opacity: 1;"  paint-order="stroke"  x="-640" y="-512" rx="0" ry="0" width="1280" height="1024" />
</g>
<g transform="matrix(1.9211538461538462 0 0 1.9211538461538462 639.4939130575858 509.5286576041726)" id="text-logo"  >
<g style=""  paint-order="stroke"   >
		<g transform="matrix(1 0 0 1 0 0)" id="text-logo-path-0"  >
<path style="stroke: none; stroke-width: 0; stroke-dasharray: none; stroke-linecap: butt; stroke-dashoffset: 0; stroke-linejoin: miter; stroke-miterlimit: 4; fill: rgb(66,130,164); fill-rule: nonzero; opacity: 1;"  paint-order="stroke"  transform=" translate(-213.92499999999998, 17.075)" d="M 1.6 -16.95 C 1.6 -7.2 9.6 0.7 19.25 0.7 C 25.7 0.7 31.8 -3 34.8 -8.7 L 27.45 -12.7 C 25.95 -9.65 22.65 -7.65 19.25 -7.65 C 14.15 -7.65 9.9 -11.9 9.9 -16.95 C 9.9 -22.05 14.2 -26.25 19.25 -26.25 C 22.65 -26.25 25.75 -24.45 27.4 -21.45 L 34.7 -25.35 C 31.65 -31.05 25.7 -34.55 19.25 -34.55 C 9.55 -34.55 1.6 -26.75 1.6 -16.95 Z M 62.2 0.7 C 72 0.7 79.8 -7.25 79.8 -16.95 C 79.8 -26.8 71.95 -34.55 62.2 -34.55 C 52.4 -34.55 44.55 -26.65 44.55 -16.95 C 44.55 -7.3 52.45 0.7 62.2 0.7 Z M 52.85 -16.95 C 52.85 -22.05 57.15 -26.25 62.2 -26.25 C 67.35 -26.25 71.45 -22.05 71.45 -16.95 C 71.45 -11.85 67.35 -7.65 62.2 -7.65 C 57.1 -7.65 52.85 -11.9 52.85 -16.95 Z M 117.55 -34.15 L 117.5 -34.2 L 108.55 -19.25 L 99.6 -34.2 L 91.25 -34.2 L 91.25 0 L 99.6 0 L 99.6 -18.95 L 107.55 -5.6 L 109.6 -5.6 L 117.55 -18.95 L 117.55 0 L 125.85 0 L 125.85 -34.2 L 117.55 -34.2 Z M 140.35 -34.2 L 140.35 0 L 148.7 0 L 148.7 -34.2 Z M 182.65 -34.2 L 182.65 -16.8 L 171.55 -34.2 L 163.2 -34.2 L 163.2 0 L 171.55 0 L 171.55 -19.55 L 184.05 0 L 191 0 L 191 -34.2 Z M 237.95 -15.7 L 237.95 -19.1 L 219.05 -19.1 L 219.05 -11.2 L 227.85 -11.2 C 226.1 -8.95 223.45 -7.65 220.6 -7.65 C 215.5 -7.65 211.25 -11.9 211.25 -16.95 C 211.25 -22.05 215.55 -26.25 220.6 -26.25 C 223.7 -26.25 226.15 -24.9 228.05 -22.45 L 234.55 -27.6 C 231.15 -32 226.2 -34.55 220.6 -34.55 C 210.8 -34.55 202.95 -26.65 202.95 -16.95 C 202.95 -7.2 210.95 0.7 220.6 0.7 C 229.7 0.7 237.95 -6.4 237.95 -15.7 Z M 283.5 0.7 C 289.85 0.7 296 -2.85 296 -9.7 C 296 -16.45 290.7 -19.25 284.95 -21 C 283.4 -21.5 282.25 -21.95 281.5 -22.3 C 280.45 -22.8 279.7 -23.35 279.7 -24.6 C 279.7 -26.05 281.55 -26.6 282.7 -26.6 C 285.4 -26.6 286.75 -25.4 287.9 -23.05 L 295 -27.2 C 292.55 -32.25 288.3 -34.85 282.7 -34.85 C 276.6 -34.85 271.4 -30.9 271.4 -24.6 C 271.4 -18.15 276 -15.6 281.55 -13.95 C 283.3 -13.45 284.55 -13 285.4 -12.65 C 286.55 -12.2 287.7 -11.6 287.7 -10.2 C 287.7 -8.35 285.2 -7.45 283.7 -7.45 C 280.45 -7.45 278.2 -8.7 276.95 -11.8 L 269.95 -7.7 C 272.2 -1.95 277.5 0.7 283.5 0.7 Z M 323.2 0.7 C 333 0.7 340.8 -7.25 340.8 -16.95 C 340.8 -26.8 332.95 -34.55 323.2 -34.55 C 313.4 -34.55 305.55 -26.65 305.55 -16.95 C 305.55 -7.3 313.45 0.7 323.2 0.7 Z M 313.85 -16.95 C 313.85 -22.05 318.15 -26.25 323.2 -26.25 C 328.35 -26.25 332.45 -22.05 332.45 -16.95 C 332.45 -11.85 328.35 -7.65 323.2 -7.65 C 318.1 -7.65 313.85 -11.9 313.85 -16.95 Z M 368.9 0.7 C 378.7 0.7 386.5 -7.25 386.5 -16.95 C 386.5 -26.8 378.65 -34.55 368.9 -34.55 C 359.1 -34.55 351.25 -26.65 351.25 -16.95 C 351.25 -7.3 359.15 0.7 368.9 0.7 Z M 359.55 -16.95 C 359.55 -22.05 363.85 -26.25 368.9 -26.25 C 374.05 -26.25 378.15 -22.05 378.15 -16.95 C 378.15 -11.85 374.05 -7.65 368.9 -7.65 C 363.8 -7.65 359.55 -11.9 359.55 -16.95 Z M 417.9 -34.2 L 417.9 -16.8 L 406.8 -34.2 L 398.45 -34.2 L 398.45 0 L 406.8 0 L 406.8 -19.55 L 419.3 0 L 426.25 0 L 426.25 -34.2 Z" stroke-linecap="round" />
</g>
</g>
</g>
</svg>