<?xml version="1.0" encoding="UTF-8" standalone="no" ?>
<!DOCTYPE svg PUBLIC "-//W3C//DTD SVG 1.1//EN" "http://www.w3.org/Graphics/SVG/1.1/DTD/svg11.dtd">
<svg xmlns="http://www.w3.org/2000/svg" xmlns:xlink="http://www.w3.org/1999/xlink" version="1.1" width="1280" height="1024" viewBox="0 0 1280 1024" xml:space="preserve">
<desc>Created with Fabric.js 5.3.0</desc>
<defs>
</defs>
<g transform="matrix(1 0 0 1 640 512)" id="background-logo"  >
<rect style="stroke: none; stroke-width: 0; stroke-dasharray: none; stroke-linecap: butt; stroke-dashoffset: 0; stroke-linejoin: miter; stroke-miterlimit: 4; fill: rgb(255,255,255); fill-opacity: 0; fill-rule: nonzero; opacity: 1;"  paint-order="stroke"  x="-640" y="-512" rx="0" ry="0" width="1280" height="1024" />
</g>
<g transform="matrix(1.9211538461538462 0 0 1.9211538461538462 642.3516294037396 654.0717634844326)" id="text-logo"  >
<g style=""  paint-order="stroke"   >
		<g transform="matrix(1 0 0 1 0 0)" id="text-logo-path-0"  >
<path style="stroke: none; stroke-width: 0; stroke-dasharray: none; stroke-linecap: butt; stroke-dashoffset: 0; stroke-linejoin: miter; stroke-miterlimit: 4; fill: rgb(254,94,65); fill-rule: nonzero; opacity: 1;"  paint-order="stroke"  transform=" translate(-76.8, 16.75)" d="M 17.7 -34.2 L 3.1 -34.2 L 3.1 0 L 17.7 0 C 27.45 0 35.25 -7.2 35.25 -16.95 C 35.25 -26.65 27.45 -34.2 17.7 -34.2 Z M 11.45 -7.85 L 11.45 -26.3 L 17.7 -26.3 C 22.85 -26.3 26.95 -22.15 26.95 -17.05 C 26.95 -11.9 22.75 -7.85 17.7 -7.85 Z M 73.7 -11.5 L 73.7 -34.2 L 65.4 -34.2 L 65.4 -11.5 C 65.4 -8.6 62.6 -7.6 60.1 -7.6 C 57.8 -7.6 54.85 -8.8 54.85 -11.5 L 54.85 -34.2 L 46.55 -34.2 L 46.55 -11.5 C 46.55 -3.9 53 0.7 60.1 0.7 C 67.25 0.7 73.7 -4.05 73.7 -11.5 Z M 108.5 0 L 118.85 0 L 104.7 -18.65 L 117.2 -34.2 L 106.7 -34.2 L 96.25 -21.35 L 96.25 -34.2 L 87.9 -34.2 L 87.9 0 L 96.25 0 L 96.25 -8.05 L 99.35 -11.95 Z M 137.15 -7.85 L 137.15 -13.55 L 149.05 -13.55 L 149.05 -21.4 L 137.15 -21.4 L 137.15 -26.3 L 150.25 -26.3 L 150.25 -34.2 L 128.8 -34.2 L 128.8 0 L 150.5 0 L 150.5 -7.85 Z" stroke-linecap="round" />
</g>
</g>
</g>
<g transform="matrix(1.9211538461538462 0 0 1.9211538461538462 641.676824115278 745.9277002152019)" id="tagline-55a20801-eeba-407e-80ed-45df15e56c2b-logo"  >
<g style=""  paint-order="stroke"   >
		<g transform="matrix(1 0 0 1 5.684342e-14 0)" id="tagline-55a20801-eeba-407e-80ed-45df15e56c2b-logo-path-0"  >
<path style="stroke: none; stroke-width: 0; stroke-dasharray: none; stroke-linecap: butt; stroke-dashoffset: 0; stroke-linejoin: miter; stroke-miterlimit: 4; fill: rgb(243,193,120); fill-rule: nonzero; opacity: 1;"  paint-order="stroke"  transform=" translate(-263.43, 12.25)" d="M 22.93 -24.5 L 1.26 -24.5 L 1.26 -19.25 L 9.28 -19.25 L 9.28 0 L 14.88 0 L 14.88 -19.25 L 22.93 -19.25 Z M 32.66 -24.5 L 32.66 0 L 38.26 0 L 38.26 -9.28 L 48.76 -9.28 L 48.76 0 L 54.36 0 L 54.36 -24.5 L 48.76 -24.5 L 48.76 -14.53 L 38.26 -14.53 L 38.26 -24.5 Z M 65.48 -24.5 L 65.48 0 L 83.62 0 L 83.62 -5.25 L 71.09 -5.25 L 71.09 -9.63 L 81.17 -9.63 L 81.17 -14.53 L 71.09 -14.53 L 71.09 -19.25 L 83.62 -19.25 L 83.62 -24.5 Z M 107.59 -24.5 L 107.59 0 L 113.19 0 L 113.19 -12.88 L 119 0 L 125.09 0 L 130.9 -12.88 L 130.9 0 L 136.5 0 L 136.5 -24.5 L 130.55 -24.5 L 122.05 -6.23 L 113.54 -24.5 Z M 158.13 0.56 C 165.52 0.56 170.91 -4.52 170.91 -12.22 C 170.91 -19.67 165.87 -25.06 158.13 -25.06 C 150.75 -25.06 145.36 -19.95 145.36 -12.22 C 145.36 -4.83 150.43 0.56 158.13 0.56 Z M 151.2 -12.22 C 151.2 -16.28 153.93 -19.53 158.13 -19.53 C 162.12 -19.53 165.06 -16.38 165.06 -12.22 C 165.06 -8.23 162.3 -4.97 158.13 -4.97 C 154.14 -4.97 151.2 -8.09 151.2 -12.22 Z M 180.5 -24.5 L 180.5 0 L 191.28 0 C 198.35 0 203.53 -4.9 203.53 -12.25 C 203.53 -19.32 198.63 -24.5 191.28 -24.5 Z M 186.1 -5.25 L 186.1 -19.25 L 190.58 -19.25 C 194.64 -19.25 197.58 -16.49 197.58 -12.25 C 197.58 -8.19 194.81 -5.25 190.58 -5.25 Z M 213.01 -24.5 L 213.01 0 L 231.14 0 L 231.14 -5.25 L 218.61 -5.25 L 218.61 -9.63 L 228.69 -9.63 L 228.69 -14.53 L 218.61 -14.53 L 218.61 -19.25 L 231.14 -19.25 L 231.14 -24.5 Z M 241.26 0 L 246.86 0 L 246.86 -5.36 L 251.62 -5.36 L 254.91 0 L 261.56 0 L 257.01 -6.93 C 259.53 -8.58 261.14 -11.45 261.14 -14.98 C 261.14 -20.37 257.22 -24.5 251.62 -24.5 L 241.26 -24.5 Z M 246.86 -10.61 L 246.86 -19.25 L 250.85 -19.25 C 253.33 -19.25 255.19 -17.5 255.19 -14.95 C 255.19 -12.43 253.47 -10.61 250.85 -10.61 Z M 271.11 -24.5 L 271.11 0 L 276.71 0 L 276.71 -15.12 L 288.96 0 L 294.56 0 L 294.56 -24.5 L 288.96 -24.5 L 288.96 -9.38 L 276.71 -24.5 Z M 323.12 -8.82 L 317.66 -7.42 C 318.5 -2.66 321.97 0.56 326.9 0.56 C 332.5 0.56 336.25 -3.19 336.25 -9.35 L 336.25 -24.5 L 330.65 -24.5 L 330.65 -9.35 C 330.65 -6.55 329.18 -4.94 326.87 -4.94 C 324.84 -4.94 323.4 -6.51 323.12 -8.82 Z M 368.62 -11.03 L 368.62 -24.5 L 363.02 -24.5 L 363.02 -11.03 C 363.02 -7.56 360.68 -5.04 357.11 -5.04 C 353.64 -5.04 351.12 -7.42 351.12 -11.03 L 351.12 -24.5 L 345.52 -24.5 L 345.52 -11.03 C 345.52 -4.31 350.14 0.56 357.14 0.56 C 363.76 0.56 368.62 -4.06 368.62 -11.03 Z M 378.56 -24.5 L 378.56 0 L 384.16 0 L 384.16 -5.15 L 388.4 -10.12 L 395.01 0 L 402.01 0 L 391.93 -14.32 L 400.61 -24.5 L 393.96 -24.5 L 384.16 -13.23 L 384.16 -24.5 Z M 411.39 -24.5 L 411.39 0 L 429.52 0 L 429.52 -5.25 L 416.99 -5.25 L 416.99 -9.63 L 427.07 -9.63 L 427.07 -14.53 L 416.99 -14.53 L 416.99 -19.25 L 429.52 -19.25 L 429.52 -24.5 Z M 439.99 0 L 452.52 0 C 457.24 0 460.43 -2.59 460.43 -6.79 C 460.43 -9.49 459.13 -11.59 456.86 -12.71 C 458.29 -13.86 459.13 -15.61 459.13 -17.75 C 459.13 -21.81 456.09 -24.5 451.12 -24.5 L 439.99 -24.5 Z M 445.59 -5.25 L 445.59 -9.63 L 451.82 -9.63 C 453.43 -9.63 454.37 -8.75 454.37 -7.46 C 454.37 -6.09 453.32 -5.25 451.82 -5.25 Z M 445.59 -14.14 L 445.59 -19.25 L 450.98 -19.25 C 452.87 -19.25 453.95 -18.2 453.95 -16.7 C 453.95 -15.09 452.76 -14.14 450.98 -14.14 Z M 481.5 0.56 C 488.88 0.56 494.27 -4.52 494.27 -12.22 C 494.27 -19.67 489.23 -25.06 481.5 -25.06 C 474.11 -25.06 468.72 -19.95 468.72 -12.22 C 468.72 -4.83 473.8 0.56 481.5 0.56 Z M 474.57 -12.22 C 474.57 -16.28 477.3 -19.53 481.5 -19.53 C 485.49 -19.53 488.43 -16.38 488.43 -12.22 C 488.43 -8.23 485.66 -4.97 481.5 -4.97 C 477.51 -4.97 474.57 -8.09 474.57 -12.22 Z M 521.4 -25.06 L 512.89 -16.52 L 504.39 -25.06 L 500.19 -20.76 L 508.66 -12.25 L 500.19 -3.75 L 504.39 0.56 L 512.89 -7.98 L 521.4 0.56 L 525.6 -3.75 L 517.13 -12.25 L 525.6 -20.76 Z" stroke-linecap="round" />
</g>
</g>
</g>
<g transform="matrix(1.9211538461538462 0 0 1.9211538461538462 659.5341765198285 400.66902497345427)" id="logo-logo"  >
<g style=""  paint-order="stroke"   >
		<g transform="matrix(0.05364548675192105 0 0 0.05364548675192105 9.207728223556273 -76.58682953402945)"  >
<g style=""  paint-order="stroke"   >
		<g transform="matrix(1 0 0 1 0 0)"  >
<path style="stroke: none; stroke-width: 1; stroke-dasharray: none; stroke-linecap: butt; stroke-dashoffset: 0; stroke-linejoin: miter; stroke-miterlimit: 4; fill: rgb(216,241,160); fill-rule: nonzero; opacity: 1;"  paint-order="stroke"  transform=" translate(-100, -100)" d="M 200 100 C 200 155.22847498307934 155.22847498307934 200 100 200 C 44.771525016920656 200 0 155.22847498307934 0 100 C 0 44.771525016920656 44.771525016920656 0 100 0 C 155.22847498307934 0 200 44.77152501692063 200 99.99999999999997 Z" stroke-linecap="round" />
</g>
</g>
</g>
		<g transform="matrix(0.07275693516615629 0 0 0.07275693516615629 14.366716688208612 -69.38021194848272)"  >
<g style=""  paint-order="stroke"   >
		<g transform="matrix(1 0 0 1 0 0)"  >
<path style="stroke: none; stroke-width: 1; stroke-dasharray: none; stroke-linecap: butt; stroke-dashoffset: 0; stroke-linejoin: miter; stroke-miterlimit: 4; fill: rgb(216,241,160); fill-rule: nonzero; opacity: 1;"  paint-order="stroke"  transform=" translate(-100, -100)" d="M 200 100 C 200 155.22847498307934 155.22847498307934 200 100 200 C 44.771525016920656 200 0 155.22847498307934 0 100 C 0 44.771525016920656 44.771525016920656 0 100 0 C 155.22847498307934 0 200 44.77152501692063 200 99.99999999999997 Z" stroke-linecap="round" />
</g>
</g>
</g>
		<g transform="matrix(0.10460534428352192 0 0 0.10460534428352192 20.698586502210162 -58.919677520130506)"  >
<g style=""  paint-order="stroke"   >
		<g transform="matrix(1 0 0 1 0 0)"  >
<path style="stroke: none; stroke-width: 1; stroke-dasharray: none; stroke-linecap: butt; stroke-dashoffset: 0; stroke-linejoin: miter; stroke-miterlimit: 4; fill: rgb(216,241,160); fill-rule: nonzero; opacity: 1;"  paint-order="stroke"  transform=" translate(-100, -100)" d="M 200 100 C 200 155.22847498307934 155.22847498307934 200 100 200 C 44.771525016920656 200 0 155.22847498307934 0 100 C 0 44.771525016920656 44.771525016920656 0 100 0 C 155.22847498307934 0 200 44.77152501692063 200 99.99999999999997 Z" stroke-linecap="round" />
</g>
</g>
</g>
		<g transform="matrix(0.0569598074140803 0 0 0.05695980741408032 -4.284515626014695 -5.973880498583753)"  >
<g style=""  paint-order="stroke"   >
		<g transform="matrix(1 0 0 1 0 0)"  >
<path style="stroke: none; stroke-width: 1; stroke-dasharray: none; stroke-linecap: butt; stroke-dashoffset: 0; stroke-linejoin: miter; stroke-miterlimit: 4; fill: rgb(216,241,160); fill-rule: nonzero; opacity: 1;"  paint-order="stroke"  transform=" translate(-100, -100)" d="M 200 100 C 200 155.22847498307934 155.22847498307934 200 100 200 C 44.771525016920656 200 0 155.22847498307934 0 100 C 0 44.771525016920656 44.771525016920656 0 100 0 C 155.22847498307934 0 200 44.77152501692063 200 99.99999999999997 Z" stroke-linecap="round" />
</g>
</g>
</g>
		<g transform="matrix(0.0569598074140803 0 0 0.05695980741408032 -9.980403847279945 -0.27789975717576)"  >
<g style=""  paint-order="stroke"   >
		<g transform="matrix(1 0 0 1 0 0)"  >
<path style="stroke: none; stroke-width: 1; stroke-dasharray: none; stroke-linecap: butt; stroke-dashoffset: 0; stroke-linejoin: miter; stroke-miterlimit: 4; fill: rgb(216,241,160); fill-rule: nonzero; opacity: 1;"  paint-order="stroke"  transform=" translate(-100, -100)" d="M 200 100 C 200 155.22847498307934 155.22847498307934 200 100 200 C 44.771525016920656 200 0 155.22847498307934 0 100 C 0 44.771525016920656 44.771525016920656 0 100 0 C 155.22847498307934 0 200 44.77152501692063 200 99.99999999999997 Z" stroke-linecap="round" />
</g>
</g>
</g>
		<g transform="matrix(0.0569598074140803 0 0 0.05695980741408032 0 -9.640211085015693)"  >
<g style=""  paint-order="stroke"   >
		<g transform="matrix(1 0 0 1 0 0)"  >
<path style="stroke: none; stroke-width: 1; stroke-dasharray: none; stroke-linecap: butt; stroke-dashoffset: 0; stroke-linejoin: miter; stroke-miterlimit: 4; fill: rgb(216,241,160); fill-rule: nonzero; opacity: 1;"  paint-order="stroke"  transform=" translate(-100, -100)" d="M 200 100 C 200 155.22847498307934 155.22847498307934 200 100 200 C 44.771525016920656 200 0 155.22847498307934 0 100 C 0 44.771525016920656 44.771525016920656 0 100 0 C 155.22847498307934 0 200 44.77152501692063 200 99.99999999999997 Z" stroke-linecap="round" />
</g>
</g>
</g>
		<g transform="matrix(0.0569598074140803 0 0 0.05695980741408032 -12.11702549550074 6.373343580817874)"  >
<g style=""  paint-order="stroke"   >
		<g transform="matrix(1 0 0 1 0 0)"  >
<path style="stroke: none; stroke-width: 1; stroke-dasharray: none; stroke-linecap: butt; stroke-dashoffset: 0; stroke-linejoin: miter; stroke-miterlimit: 4; fill: rgb(216,241,160); fill-rule: nonzero; opacity: 1;"  paint-order="stroke"  transform=" translate(-100, -100)" d="M 200 100 C 200 155.22847498307934 155.22847498307934 200 100 200 C 44.771525016920656 200 0 155.22847498307934 0 100 C 0 44.771525016920656 44.771525016920656 0 100 0 C 155.22847498307934 0 200 44.77152501692063 200 99.99999999999997 Z" stroke-linecap="round" />
</g>
</g>
</g>
		<g transform="matrix(0.07809030545818949 0 0 0.07809030545818949 5.956229352775097 -16.627977466839354)"  >
<g style=""  paint-order="stroke"   >
		<g transform="matrix(1 0 0 1 0 0)"  >
<path style="stroke: none; stroke-width: 1; stroke-dasharray: none; stroke-linecap: butt; stroke-dashoffset: 0; stroke-linejoin: miter; stroke-miterlimit: 4; fill: rgb(216,241,160); fill-rule: nonzero; opacity: 1;"  paint-order="stroke"  transform=" translate(-100, -100)" d="M 200 100 C 200 155.22847498307934 155.22847498307934 200 100 200 C 44.771525016920656 200 0 155.22847498307934 0 100 C 0 44.771525016920656 44.771525016920656 0 100 0 C 155.22847498307934 0 200 44.77152501692063 200 99.99999999999997 Z" stroke-linecap="round" />
</g>
</g>
</g>
		<g transform="matrix(0.11639698012825271 0 0 0.11639698012825268 15.225565775487041 -25.5218289799881)"  >
<g style=""  paint-order="stroke"   >
		<g transform="matrix(1 0 0 1 0 0)"  >
<path style="stroke: none; stroke-width: 1; stroke-dasharray: none; stroke-linecap: butt; stroke-dashoffset: 0; stroke-linejoin: miter; stroke-miterlimit: 4; fill: rgb(216,241,160); fill-rule: nonzero; opacity: 1;"  paint-order="stroke"  transform=" translate(-100, -100)" d="M 200 100 C 200 155.22847498307934 155.22847498307934 200 100 200 C 44.771525016920656 200 0 155.22847498307934 0 100 C 0 44.771525016920656 44.771525016920656 0 100 0 C 155.22847498307934 0 200 44.77152501692063 200 99.99999999999997 Z" stroke-linecap="round" />
</g>
</g>
</g>
		<g transform="matrix(0.1767011511966645 0 0 0.1767011511966645 31.15912093056238 -37.016725583625146)"  >
<g style=""  paint-order="stroke"   >
		<g transform="matrix(1 0 0 1 0 0)"  >
<path style="stroke: none; stroke-width: 1; stroke-dasharray: none; stroke-linecap: butt; stroke-dashoffset: 0; stroke-linejoin: miter; stroke-miterlimit: 4; fill: rgb(216,241,160); fill-rule: nonzero; opacity: 1;"  paint-order="stroke"  transform=" translate(-100, -100)" d="M 200 100 C 200 155.22847498307934 155.22847498307934 200 100 200 C 44.771525016920656 200 0 155.22847498307934 0 100 C 0 44.771525016920656 44.771525016920656 0 100 0 C 155.22847498307934 0 200 44.77152501692063 200 99.99999999999997 Z" stroke-linecap="round" />
</g>
</g>
</g>
		<g transform="matrix(0.06268058600969864 0 0 0.06268058600969864 57.59488841179086 -27.38317439998096)"  >
<g style=""  paint-order="stroke"   >
		<g transform="matrix(1 0 0 1 0 0)"  >
<path style="stroke: none; stroke-width: 1; stroke-dasharray: none; stroke-linecap: butt; stroke-dashoffset: 0; stroke-linejoin: miter; stroke-miterlimit: 4; fill: rgb(216,241,160); fill-rule: nonzero; opacity: 1;"  paint-order="stroke"  transform=" translate(-100, -100)" d="M 200 100 C 200 155.22847498307934 155.22847498307934 200 100 200 C 44.771525016920656 200 0 155.22847498307934 0 100 C 0 44.771525016920656 44.771525016920656 0 100 0 C 155.22847498307934 0 200 44.77152501692063 200 99.99999999999997 Z" stroke-linecap="round" />
</g>
</g>
</g>
		<g transform="matrix(0.11931346582533248 0 0 0.11931346582533248 47.21733473396233 -32.72225414516885)"  >
<g style=""  paint-order="stroke"   >
		<g transform="matrix(1 0 0 1 0 0)"  >
<path style="stroke: none; stroke-width: 1; stroke-dasharray: none; stroke-linecap: butt; stroke-dashoffset: 0; stroke-linejoin: miter; stroke-miterlimit: 4; fill: rgb(216,241,160); fill-rule: nonzero; opacity: 1;"  paint-order="stroke"  transform=" translate(-100, -100)" d="M 200 100 C 200 155.22847498307934 155.22847498307934 200 100 200 C 44.771525016920656 200 0 155.22847498307934 0 100 C 0 44.771525016920656 44.771525016920656 0 100 0 C 155.22847498307934 0 200 44.77152501692063 200 99.99999999999997 Z" stroke-linecap="round" />
</g>
</g>
</g>
		<g transform="matrix(0.05364548675192105 0 0 0.05364548675192105 40.08456798338864 -49.94483104228172)"  >
<g style=""  paint-order="stroke"   >
		<g transform="matrix(1 0 0 1 0 0)"  >
<path style="stroke: none; stroke-width: 1; stroke-dasharray: none; stroke-linecap: butt; stroke-dashoffset: 0; stroke-linejoin: miter; stroke-miterlimit: 4; fill: rgb(216,241,160); fill-rule: nonzero; opacity: 1;"  paint-order="stroke"  transform=" translate(-100, -100)" d="M 200 100 C 200 155.22847498307934 155.22847498307934 200 100 200 C 44.771525016920656 200 0 155.22847498307934 0 100 C 0 44.771525016920656 44.771525016920656 0 100 0 C 155.22847498307934 0 200 44.77152501692063 200 99.99999999999997 Z" stroke-linecap="round" />
</g>
</g>
</g>
		<g transform="matrix(0.06268058600969864 0 0 0.06268058600969864 63.88421473560135 -22.62505517375294)"  >
<g style=""  paint-order="stroke"   >
		<g transform="matrix(1 0 0 1 0 0)"  >
<path style="stroke: none; stroke-width: 1; stroke-dasharray: none; stroke-linecap: butt; stroke-dashoffset: 0; stroke-linejoin: miter; stroke-miterlimit: 4; fill: rgb(216,241,160); fill-rule: nonzero; opacity: 1;"  paint-order="stroke"  transform=" translate(-100, -100)" d="M 200 100 C 200 155.22847498307934 155.22847498307934 200 100 200 C 44.771525016920656 200 0 155.22847498307934 0 100 C 0 44.771525016920656 44.771525016920656 0 100 0 C 155.22847498307934 0 200 44.77152501692063 200 99.99999999999997 Z" stroke-linecap="round" />
</g>
</g>
</g>
		<g transform="matrix(0.23130035687299325 0 0 -0.23130035687299325 -22.35758341926811 -25.637423037138916)"  >
<path style="stroke: none; stroke-width: 1; stroke-dasharray: none; stroke-linecap: butt; stroke-dashoffset: 0; stroke-linejoin: miter; stroke-miterlimit: 4; fill: rgb(193,193,193); fill-rule: nonzero; opacity: 1;"  paint-order="stroke"  transform=" translate(41.8354297125475, -14.034666523822615)" d="M 0 0 L 0 0 L 0 54.177 L 0 80.445 L -62.521 51.328 L -62.521 25.06 L -62.521 -17.029 C -67.911 -17.067 -73.934 -20.093 -78.343 -25.541 C -85.096 -33.887 -85.50200000000001 -44.754000000000005 -79.25 -49.813 C -72.997 -54.873000000000005 -62.454 -52.208000000000006 -55.701 -43.861000000000004 C -51.968 -39.248000000000005 -50.178 -33.865 -50.377 -29.117000000000004 L -50.377 30.715999999999994 L -12.144000000000005 48.520999999999994 L -12.144000000000005 12.088 C -17.534000000000006 12.049999999999999 -23.557000000000006 9.024 -27.966000000000005 3.5759999999999987 C -34.71900000000001 -4.770000000000001 -35.12500000000001 -15.637000000000002 -28.873000000000005 -20.695999999999998 C -22.620000000000005 -25.755 -12.077000000000005 -23.089999999999996 -5.324000000000005 -14.743999999999998 C -1.591 -10.13 0.199 -4.748 0 0" stroke-linecap="round" />
</g>
		<g transform="matrix(0.23130035687299325 0 0 -0.23130035687299325 -43.116690441260744 -37.63074855374336)"  >
<path style="stroke: none; stroke-width: 1; stroke-dasharray: none; stroke-linecap: butt; stroke-dashoffset: 0; stroke-linejoin: miter; stroke-miterlimit: 4; fill: rgb(193,193,193); fill-rule: nonzero; opacity: 1;"  paint-order="stroke"  transform=" translate(16.646997342447325, -28.593504578813807)" d="M 0 0 L 0 0 L 0 80.445 L -12.144 80.445 L -12.144 12.088 C -17.534 12.049999999999999 -23.558 9.024999999999999 -27.966 3.5759999999999987 C -34.719 -4.770000000000001 -35.125 -15.637000000000002 -28.873 -20.695999999999998 C -22.621000000000002 -25.755 -12.078 -23.089999999999996 -5.324000000000002 -14.743999999999998 C -1.591 -10.13 0.198 -4.748 0 0" stroke-linecap="round" />
</g>
		<g transform="matrix(0.23130035687299325 0 0 -0.23130035687299325 -49.71782179314755 -3.1049282663906013)"  >
<path style="stroke: none; stroke-width: 1; stroke-dasharray: none; stroke-linecap: butt; stroke-dashoffset: 0; stroke-linejoin: miter; stroke-miterlimit: 4; fill: rgb(193,193,193); fill-rule: nonzero; opacity: 1;"  paint-order="stroke"  transform=" translate(33.0295155309926, 15.57823531532162)" d="M 0 0 C -2.959 1.83 -7.964 6.779 -14.489 20.087 C -24.721 40.955 -45.072 30.762999999999998 -45.072 30.762999999999998 L -45.072 -29.089 C -50.7 -28.741999999999997 -57.192 -31.794999999999998 -61.869 -37.573 C -68.622 -45.92 -69.028 -56.787 -62.775 -61.846000000000004 C -56.522999999999996 -66.905 -45.98 -64.24000000000001 -39.227000000000004 -55.895 C -35.362 -51.118 -33.580000000000005 -45.518 -33.931000000000004 -40.650000000000006 L -33.931000000000004 11.534999999999997 C -31.340000000000003 9.834999999999997 -27.864000000000004 6.255999999999997 -23.601000000000006 -1.076000000000004 C -15.309000000000006 -15.337000000000003 -4.542000000000005 -8.281000000000004 0.3759999999999941 -3.797000000000004 C 1.557 -2.72 1.359 -0.84 0 0" stroke-linecap="round" />
</g>
		<g transform="matrix(0.23130035687299325 0 0 -0.23130035687299325 -10.594426817398187 33.99254138280895)"  >
<path style="stroke: none; stroke-width: 1; stroke-dasharray: none; stroke-linecap: butt; stroke-dashoffset: 0; stroke-linejoin: miter; stroke-miterlimit: 4; fill: rgb(243,193,120); fill-rule: nonzero; opacity: 1;"  paint-order="stroke"  transform=" translate(217.24349999999998, -2.6270000000000007)" d="M 0 0 C 0 7.446 -6.036 13.482 -13.482 13.482 L -421.005 13.482 C -428.451 13.482 -434.48699999999997 7.446 -434.48699999999997 0 L -434.48699999999997 -8.228 L 0 -8.228 Z" stroke-linecap="round" />
</g>
		<g transform="matrix(0.23130035687299325 0 0 -0.23130035687299325 -10.59451933754093 81.10368242052175)"  >
<path style="stroke: none; stroke-width: 1; stroke-dasharray: none; stroke-linecap: butt; stroke-dashoffset: 0; stroke-linejoin: miter; stroke-miterlimit: 4; fill: rgb(243,193,120); fill-rule: nonzero; opacity: 1;"  paint-order="stroke"  transform=" translate(-239.94899999999998, 2.654)" d="M 0 0 C 0 -7.522 6.098 -13.621 13.621 -13.621 L 466.27799999999996 -13.621 C 473.79999999999995 -13.621 479.89799999999997 -7.522 479.89799999999997 0 L 479.89799999999997 8.313 L 0 8.313 Z" stroke-linecap="round" />
</g>
		<g transform="matrix(0.23130035687299325 0 0 -0.23130035687299325 -10.594496207505244 57.535054996519875)"  >
<path style="stroke: none; stroke-width: 1; stroke-dasharray: none; stroke-linecap: butt; stroke-dashoffset: 0; stroke-linejoin: miter; stroke-miterlimit: 4; fill: rgb(243,193,120); fill-rule: nonzero; opacity: 1;"  paint-order="stroke"  transform=" translate(40.7345, 15.876)" d="M 0 0 L -81.469 0 C -82.42599999999999 0 -83.205 -0.779 -83.205 -1.736 L -83.205 -30.017 C -83.205 -30.974 -82.426 -31.752 -81.469 -31.752 L 0 -31.752 C 0.958 -31.752 1.736 -30.974 1.736 -30.017 L 1.736 -1.736 C 1.736 -0.779 0.958 0 0 0" stroke-linecap="round" />
</g>
		<g transform="matrix(0.23130035687299325 0 0 -0.23130035687299325 -10.594542467576673 57.53519377673405)"  >
<path style="stroke: none; stroke-width: 1; stroke-dasharray: none; stroke-linecap: butt; stroke-dashoffset: 0; stroke-linejoin: miter; stroke-miterlimit: 4; fill: rgb(254,94,65); fill-rule: nonzero; opacity: 1;"  paint-order="stroke"  transform=" translate(52.59650000000002, -14.14)" d="M 0 0 C 0 -6.54 -5.321 -11.861 -11.862 -11.861 L -93.33099999999999 -11.861 C -99.87199999999999 -11.861 -105.192 -6.540000000000001 -105.192 0 L -105.192 28.28 C -105.192 34.821 -99.87199999999999 40.143 -93.33099999999999 40.143 L -11.861999999999995 40.143 C -5.321 40.143 0 34.821 0 28.28 Z M 164.647 66.397 C 148.886 66.397 136.107 79.17500000000001 136.107 94.93700000000001 L -241.3 94.93700000000001 C -241.3 79.17500000000001 -254.078 66.39700000000002 -269.84000000000003 66.39700000000002 L -269.84000000000003 -38.117 C -254.07800000000003 -38.117 -241.30000000000004 -50.894999999999996 -241.30000000000004 -66.657 L 136.10699999999994 -66.657 C 136.10699999999994 -50.894999999999996 148.88599999999994 -38.117 164.64699999999993 -38.117 z" stroke-linecap="round" />
</g>
		<g transform="matrix(0.23130035687299325 0 0 -0.23130035687299325 16.666841413973998 12.989173696742654)"  >
<path style="stroke: none; stroke-width: 1; stroke-dasharray: none; stroke-linecap: butt; stroke-dashoffset: 0; stroke-linejoin: miter; stroke-miterlimit: 4; fill: rgb(216,241,160); fill-rule: nonzero; opacity: 1;"  paint-order="stroke"  transform=" translate(13.239, 0)" d="M 0 0 C 0 16.153 -4.898 29.248 -10.942 29.248 L -26.478 29.248 C -20.435000000000002 29.248 -15.536000000000001 16.153 -15.536000000000001 0 C -15.536000000000001 -16.153 -20.435000000000002 -29.248 -26.478 -29.248 L -10.942000000000002 -29.248 C -4.898 -29.248 0 -16.153 0 0" stroke-linecap="round" />
</g>
		<g transform="matrix(0.23130035687299325 0 0 -0.23130035687299325 28.027890134192035 -30.772696774150262)"  >
<path style="stroke: none; stroke-width: 1; stroke-dasharray: none; stroke-linecap: butt; stroke-dashoffset: 0; stroke-linejoin: miter; stroke-miterlimit: 4; fill: rgb(0,168,120); fill-rule: nonzero; opacity: 1;"  paint-order="stroke"  transform=" translate(127.87183661360967, -37.43712101498019)" d="M 0 0 C -11.892 8.84 -24.729 19.137 -38.116 30.575 C -25.614 39.474 -8.19 42.25 11.95 38.431 C 16.006 33.292 19.846 28.292 23.448 23.448 C 50.224 -12.64 53.473 -26.421 53.748 -30.3 C 49.869 -30.024 36.088 -26.775 0 0 M -178.077 -28.784 C -179.691 -29.590999999999998 -181.307 -30.418 -182.901 -31.244999999999997 L -187.174 -26.973 C -140.513 7.9339999999999975 -100.58600000000001 28.941000000000003 -68.35600000000001 35.557 C -54.28000000000001 22.897000000000002 -40.59700000000001 11.242 -27.64200000000001 0.8860000000000028 C -76.54700000000001 6.655000000000003 -126.98700000000001 -3.267999999999997 -178.077 -28.784 M -288.428 -109.78 C -290.73199999999997 -112.123 -293.823 -113.403 -297.111 -113.422 L -297.15 -113.422 C -300.438 -113.422 -303.549 -112.12299999999999 -305.87199999999996 -109.79899999999999 C -308.215 -107.457 -309.49499999999995 -104.34599999999999 -309.49499999999995 -101.03899999999999 C -309.49499999999995 -97.74999999999999 -308.19499999999994 -94.65999999999998 -305.87199999999996 -92.33599999999998 C -289.23499999999996 -75.85699999999999 -259.86099999999993 -43.78599999999999 -235.44799999999995 -1.5949999999999847 L -197.66699999999994 -39.35599999999999 C -239.85799999999995 -63.78899999999999 -271.92999999999995 -93.14399999999998 -288.42799999999994 -109.78 M -287.18799999999993 -143.68200000000002 L -302.16999999999996 -143.68200000000002 C -306.18699999999995 -143.68200000000002 -309.436 -140.41500000000002 -309.436 -136.39800000000002 L -309.436 -126.81000000000003 C -305.655 -128.62200000000004 -301.481 -129.58600000000004 -297.15 -129.58600000000004 L -297.07099999999997 -129.58600000000004 C -293.64599999999996 -129.58600000000004 -290.299 -128.97600000000003 -287.188 -127.79400000000004 z M -224.85499999999993 18.014999999999986 C -199.34099999999992 69.08499999999998 -189.41799999999995 119.52499999999999 -195.18699999999993 168.45 C -184.82999999999993 155.49499999999998 -173.19499999999994 141.81199999999998 -160.5349999999999 127.755 C -167.14999999999992 95.506 -188.1579999999999 55.57899999999999 -223.0639999999999 8.917999999999992 L -227.3369999999999 13.170999999999992 C -226.5099999999999 14.785999999999992 -225.6829999999999 16.39999999999999 -224.8549999999999 18.014999999999993 M -226.3919999999999 249.82 C -222.4929999999999 249.54399999999998 -208.7119999999999 246.316 -172.64399999999992 219.521 C -167.80099999999993 215.93699999999998 -162.77999999999992 212.09799999999998 -157.66099999999992 208.022 C -153.82199999999992 187.882 -156.59799999999993 170.458 -165.5169999999999 157.956 C -176.93599999999992 171.344 -187.2519999999999 184.18099999999998 -196.0919999999999 196.09199999999998 C -222.8669999999999 232.15999999999997 -226.0969999999999 245.94199999999998 -226.3919999999999 249.82 M -139.8239999999999 193.454 C -118.9149999999999 175.892 -96.5299999999999 155.377 -74.1849999999999 133.327 L -109.8789999999999 97.632 C -125.7859999999999 113.757 -140.88699999999992 129.901 -154.6689999999999 145.494 C -144.4109999999999 158.094 -139.3519999999999 174.573 -139.8239999999999 193.454 M -82.689 48.668 C -115.54899999999999 39.396 -154.47199999999998 17.916 -198.73 -15.416000000000004 L -211.50799999999998 -2.6380000000000035 C -178.176 41.62 -156.69599999999997 80.54299999999999 -147.42399999999998 113.402 C -137.284 102.515 -126.63299999999998 91.47 -115.62699999999998 80.464 C -104.60299999999998 69.439 -93.57699999999998 58.808 -82.68899999999998 48.668 M -2.6189999999999856 56.249 C -21.498999999999985 56.741 -37.99799999999998 51.681000000000004 -50.59899999999998 41.404 C -66.19099999999999 55.185 -82.33499999999998 70.286 -98.439 86.194 L -62.74499999999999 121.888 C -40.695 99.562 -20.2 77.157 -2.619 56.249 M 65.029 -12.520999999999994 C 60.245 -1.851 51.937 11.695 40.341 27.74 C 16.932 60.167 -17.641 99.7 -57.017 139.076 C -96.373 178.432 -135.906 213.004 -168.332 236.432 C -184.378 248.009 -197.923 256.317 -208.613 261.102 C -213.791 263.424 -229.562 270.493 -238.303 261.751 C -240.469 259.585 -247.04399999999998 253.01 -237.653 232.06199999999998 C -233.499 222.76899999999998 -226.667 211.291 -217.315 197.903 C -202.353 142.541 -209.73499999999999 84.481 -239.326 25.25999999999999 C -264.212 -24.531000000000006 -298.824 -62.58800000000001 -317.251 -80.858 C -322.666 -86.21300000000001 -325.65799999999996 -93.38000000000001 -325.678 -101 C -325.678 -101.55 -325.658 -102.122 -325.61899999999997 -102.672 L -325.61899999999997 -136.398 C -325.61899999999997 -147.896 -317.311 -157.464 -306.40299999999996 -159.453 L -306.40299999999996 -191.13 L -290.21999999999997 -191.13 L -290.21999999999997 -159.846 L -205.34599999999998 -159.846 C -204.02599999999998 -172.073 -199.81199999999998 -181.011 -194.83199999999997 -181.011 C -188.78799999999995 -181.011 -183.88599999999997 -167.918 -183.88599999999997 -151.754 C -183.88599999999997 -135.611 -188.78799999999995 -122.51799999999999 -194.83199999999997 -122.51799999999999 C -199.81199999999995 -122.51799999999999 -204.02599999999995 -131.457 -205.34599999999998 -143.682 L -271.00399999999996 -143.682 L -271.00399999999996 -115.46999999999998 L -271.18199999999996 -115.46999999999998 C -251.29699999999997 -96.23399999999998 -215.85799999999995 -65.75799999999998 -170.83199999999997 -43.25399999999999 C -111.61099999999996 -13.66399999999999 -53.53099999999996 -6.260999999999989 1.8120000000000402 -21.24299999999999 C 15.19900000000004 -30.574999999999992 26.67700000000004 -37.407 35.97000000000004 -41.58099999999999 C 39.277000000000044 -43.057999999999986 46.91600000000004 -46.48299999999999 54.27900000000004 -46.48299999999999 C 58.43400000000004 -46.48299999999999 62.50900000000004 -45.38099999999999 65.67900000000004 -42.22999999999999 C 67.82500000000005 -40.06499999999999 74.42000000000004 -33.48899999999999 65.02900000000004 -12.52099999999999" stroke-linecap="round" />
</g>
		<g transform="matrix(0.23130035687299325 0 0 -0.23130035687299325 -11.394980482571327 9.16908639273538)"  >
<path style="stroke: none; stroke-width: 1; stroke-dasharray: none; stroke-linecap: butt; stroke-dashoffset: 0; stroke-linejoin: miter; stroke-miterlimit: 4; fill: rgb(216,241,160); fill-rule: nonzero; opacity: 1;"  paint-order="stroke"  transform=" translate(11.123999999999999, 7.452)" d="M 0 0 L 0 -15.888 L -14.982 -15.888 C -18.999 -15.888 -22.247999999999998 -12.620000000000001 -22.247999999999998 -8.604 L -22.247999999999998 0.984 C -18.467 -0.827 -14.292999999999997 -1.7919999999999998 -9.961999999999998 -1.7919999999999998 L -9.882999999999997 -1.7919999999999998 C -6.4579999999999975 -1.7919999999999998 -3.110999999999997 -1.182 1.7763568394002505e-15 2.220446049250313e-16" stroke-linecap="round" />
</g>
		<g transform="matrix(0.23130035687299325 0 0 -0.23130035687299325 59.41253516624437 -23.246999443108393)"  >
<path style="stroke: none; stroke-width: 1; stroke-dasharray: none; stroke-linecap: butt; stroke-dashoffset: 0; stroke-linejoin: miter; stroke-miterlimit: 4; fill: rgb(216,241,160); fill-rule: nonzero; opacity: 1;"  paint-order="stroke"  transform=" translate(45.932, -35.20045011288719)" d="M 0 0 C -3.879 0.276 -17.66 3.524 -53.748 30.3 C -65.64 39.14 -78.477 49.437 -91.864 60.875 C -79.36200000000001 69.774 -61.938 72.55 -41.798 68.73 C -37.742000000000004 63.592000000000006 -33.902 58.59100000000001 -30.300000000000004 53.748000000000005 C -3.524 17.66 -0.275 3.878 0 0" stroke-linecap="round" />
</g>
		<g transform="matrix(0.23130035687299325 0 0 -0.23130035687299325 13.383496865132429 -69.27284448520876)"  >
<path style="stroke: none; stroke-width: 1; stroke-dasharray: none; stroke-linecap: butt; stroke-dashoffset: 0; stroke-linejoin: miter; stroke-miterlimit: 4; fill: rgb(216,241,160); fill-rule: nonzero; opacity: 1;"  paint-order="stroke"  transform=" translate(25.668555568412856, -45.932)" d="M 0 0 C -11.419 13.388 -21.735 26.225 -30.575 38.136 C -57.351 74.20400000000001 -60.58 87.986 -60.875 91.864 C -56.977 91.58800000000001 -43.195 88.36 -7.1270000000000024 61.56400000000001 C -2.284 57.981 2.736 54.142 7.855 50.066 C 11.694 29.926 8.919 12.502 0 0" stroke-linecap="round" />
</g>
		<g transform="matrix(0.23130035687299325 0 0 -0.23130035687299325 31.137778161161805 -55.777648293489676)"  >
<path style="stroke: none; stroke-width: 1; stroke-dasharray: none; stroke-linecap: butt; stroke-dashoffset: 0; stroke-linejoin: miter; stroke-miterlimit: 4; fill: rgb(216,241,160); fill-rule: nonzero; opacity: 1;"  paint-order="stroke"  transform=" translate(40.242000000000004, -12.216499999999996)" d="M 0 0 L -35.694 -35.694 C -51.602000000000004 -19.570000000000004 -66.702 -3.426000000000002 -80.48400000000001 12.166999999999994 C -70.227 24.767999999999994 -65.167 41.245999999999995 -65.64000000000001 60.126999999999995 C -44.73 42.565 -22.346 22.05 0 0" stroke-linecap="round" />
</g>
		<g transform="matrix(0.23130035687299325 0 0 -0.23130035687299325 45.917269584418136 -40.998226260340346)"  >
<path style="stroke: none; stroke-width: 1; stroke-dasharray: none; stroke-linecap: butt; stroke-dashoffset: 0; stroke-linejoin: miter; stroke-miterlimit: 4; fill: rgb(216,241,160); fill-rule: nonzero; opacity: 1;"  paint-order="stroke"  transform=" translate(47.91, -25.3975)" d="M 0 0 C -18.88 0.492 -35.379 -4.568 -47.979 -14.845 C -63.572 -1.063 -79.716 14.038 -95.82 29.945 L -60.126 65.64 C -38.076 43.313 -17.581 20.909 0 0" stroke-linecap="round" />
</g>
		<g transform="matrix(0.23130035687299325 0 0 -0.23130035687299325 32.761275366053326 -22.612091502399068)"  >
<path style="stroke: none; stroke-width: 1; stroke-dasharray: none; stroke-linecap: butt; stroke-dashoffset: 0; stroke-linejoin: miter; stroke-miterlimit: 4; fill: rgb(216,241,160); fill-rule: nonzero; opacity: 1;"  paint-order="stroke"  transform=" translate(79.766, -1.2695000000000007)" d="M 0 0 C -48.905 5.769 -99.346 -4.154 -150.436 -29.67 C -152.05 -30.477 -153.66500000000002 -31.304000000000002 -155.26000000000002 -32.131 L -159.532 -27.859 C -112.871 7.048 -72.944 28.055 -40.715 34.67 C -26.639 22.011 -12.955 10.355 0 0" stroke-linecap="round" />
</g>
		<g transform="matrix(0.23130035687299325 0 0 -0.23130035687299325 23.580756031443002 -33.44566822750923)"  >
<path style="stroke: none; stroke-width: 1; stroke-dasharray: none; stroke-linecap: butt; stroke-dashoffset: 0; stroke-linejoin: miter; stroke-miterlimit: 4; fill: rgb(216,241,160); fill-rule: nonzero; opacity: 1;"  paint-order="stroke"  transform=" translate(64.40899999999999, -0.32499999999998863)" d="M 0 0 C -32.859 -9.273 -71.782 -30.752 -116.041 -64.084 L -128.81799999999998 -51.307 C -95.486 -7.048 -74.007 31.875 -64.734 64.734 C -54.595 53.847 -43.943 42.802 -32.938 31.796 C -21.913 20.771 -10.888 10.14 0 0" stroke-linecap="round" />
</g>
		<g transform="matrix(0.23130035687299325 0 0 -0.23130035687299325 12.74717930633284 -42.62621069215518)"  >
<path style="stroke: none; stroke-width: 1; stroke-dasharray: none; stroke-linecap: butt; stroke-dashoffset: 0; stroke-linejoin: miter; stroke-miterlimit: 4; fill: rgb(216,241,160); fill-rule: nonzero; opacity: 1;"  paint-order="stroke"  transform=" translate(33.401, 39.070499999999996)" d="M 0 0 C -6.615 -32.249 -27.623 -72.176 -62.529 -118.836 L -66.802 -114.583 C -65.97500000000001 -112.969 -65.147 -111.355 -64.32000000000001 -109.74 C -38.80600000000001 -58.669999999999995 -28.88300000000001 -8.229 -34.65100000000001 40.69500000000001 C -24.295 27.74 -12.66 14.057 0 0" stroke-linecap="round" />
</g>
		<g transform="matrix(0.23130035687299325 0 0 -0.23130035687299325 -1.0486842192854056 -8.811740749857421)"  >
<path style="stroke: none; stroke-width: 1; stroke-dasharray: none; stroke-linecap: butt; stroke-dashoffset: 0; stroke-linejoin: miter; stroke-miterlimit: 4; fill: rgb(216,241,160); fill-rule: nonzero; opacity: 1;"  paint-order="stroke"  transform=" translate(55.913999999999994, 18.152500000000003)" d="M 0 0 C -42.191 -24.433 -74.263 -53.788 -90.761 -70.424 C -93.065 -72.76700000000001 -96.15599999999999 -74.04700000000001 -99.44399999999999 -74.066 L -99.48299999999999 -74.066 C -102.77099999999999 -74.066 -105.88199999999999 -72.767 -108.20499999999998 -70.443 C -110.54799999999999 -68.101 -111.82799999999999 -64.99 -111.82799999999999 -61.683 C -111.82799999999999 -58.395 -110.52799999999999 -55.304 -108.20499999999998 -52.980000000000004 C -91.56799999999998 -36.501000000000005 -62.19399999999998 -4.430000000000007 -37.78099999999998 37.760999999999996 z" stroke-linecap="round" />
</g>
		<g transform="matrix(0.23130035687299325 0 0 -0.23130035687299325 -10.59451933754093 26.788738028070952)"  >
<path style="stroke: none; stroke-width: 1; stroke-dasharray: none; stroke-linecap: butt; stroke-dashoffset: 0; stroke-linejoin: miter; stroke-miterlimit: 4; fill: rgb(243,193,120); fill-rule: nonzero; opacity: 1;"  paint-order="stroke"  transform=" translate(183.23600000000002, -0.8684999999999992)" d="M 0 0 C -2.237 0.306 -3.726 2.104 -3.219 3.939 C -2.863 5.227 -1.4669999999999999 6.216 0.16800000000000015 6.4510000000000005 C 3.061 6.868 5.724 7.798 8.013 9.113 C 9.054 9.711 8.491 11.026 7.205 11.026 L -373.677 11.026 C -374.963 11.026 -375.52500000000003 9.711 -374.48400000000004 9.113 C -372.19500000000005 7.798 -369.53200000000004 6.867999999999999 -366.64000000000004 6.451 C -365.004 6.215999999999999 -363.60900000000004 5.226999999999999 -363.25300000000004 3.9389999999999996 C -362.74600000000004 2.1039999999999996 -364.23400000000004 0.3059999999999996 -366.47200000000004 -4.440892098500626e-16 C -373.11300000000006 -0.9050000000000005 -378.58400000000006 -4.488000000000001 -381.095 -9.289 L 14.623 -9.289 C 12.113 -4.488 6.641 -0.905 0 0" stroke-linecap="round" />
</g>
		<g transform="matrix(0.23130035687299325 0 0 -0.23130035687299325 -59.3778463052671 40.60056127831348)"  >
<path style="stroke: none; stroke-width: 1; stroke-dasharray: none; stroke-linecap: butt; stroke-dashoffset: 0; stroke-linejoin: miter; stroke-miterlimit: 4; fill: rgb(254,94,65); fill-rule: nonzero; opacity: 1;"  paint-order="stroke"  transform=" translate(0, -7.5815)" d="M 0 0 C 4.187 0 7.582 3.395 7.582 7.582 C 7.582 11.77 4.186999999999999 15.163 0 15.163 C -4.187 15.163 -7.582 11.77 -7.582 7.582 C -7.582 3.395 -4.187 0 0 0" stroke-linecap="round" />
</g>
		<g transform="matrix(0.23130035687299325 0 0 -0.23130035687299325 -59.3778463052671 74.46989566526156)"  >
<path style="stroke: none; stroke-width: 1; stroke-dasharray: none; stroke-linecap: butt; stroke-dashoffset: 0; stroke-linejoin: miter; stroke-miterlimit: 4; fill: rgb(254,94,65); fill-rule: nonzero; opacity: 1;"  paint-order="stroke"  transform=" translate(0, -7.582)" d="M 0 0 C 4.187 0 7.582 3.395 7.582 7.582 C 7.582 11.77 4.186999999999999 15.164 0 15.164 C -4.187 15.164 -7.582 11.77 -7.582 7.582 C -7.582 3.395 -4.187 0 0 0" stroke-linecap="round" />
</g>
		<g transform="matrix(0.23130035687299325 0 0 -0.23130035687299325 38.188900150327925 40.60053814827779)"  >
<path style="stroke: none; stroke-width: 1; stroke-dasharray: none; stroke-linecap: butt; stroke-dashoffset: 0; stroke-linejoin: miter; stroke-miterlimit: 4; fill: rgb(254,94,65); fill-rule: nonzero; opacity: 1;"  paint-order="stroke"  transform=" translate(-0.0004999999999997229, 7.5815)" d="M 0 0 C -4.187 0 -7.581 -3.394 -7.581 -7.581 C -7.581 -11.769 -4.187 -15.163 0 -15.163 C 4.187 -15.163 7.582 -11.769 7.582 -7.581 C 7.582 -3.394 4.187 0 0 0" stroke-linecap="round" />
</g>
		<g transform="matrix(0.23130035687299325 0 0 -0.23130035687299325 38.188900150327925 74.46989566526156)"  >
<path style="stroke: none; stroke-width: 1; stroke-dasharray: none; stroke-linecap: butt; stroke-dashoffset: 0; stroke-linejoin: miter; stroke-miterlimit: 4; fill: rgb(254,94,65); fill-rule: nonzero; opacity: 1;"  paint-order="stroke"  transform=" translate(-0.0004999999999997229, -7.582)" d="M 0 0 C 4.187 0 7.582 3.395 7.582 7.582 C 7.582 11.77 4.186999999999999 15.164 0 15.164 C -4.187 15.164 -7.581 11.77 -7.581 7.582 C -7.581 3.395 -4.187 0 0 0" stroke-linecap="round" />
</g>
		<g transform="matrix(0.23130035687299325 0 0 -0.23130035687299325 -35.026498473607035 -6.587903468701995)"  >
<path style="stroke: none; stroke-width: 1; stroke-dasharray: none; stroke-linecap: butt; stroke-dashoffset: 0; stroke-linejoin: miter; stroke-miterlimit: 4; fill: rgb(216,241,160); fill-rule: nonzero; opacity: 1;"  paint-order="stroke"  transform=" translate(105.62850000000003, 287.601)" d="M 0 0 C -150.63 0 -273.177 -127.878 -273.177 -285.062 L -273.177 -575.202 L -232.59300000000002 -575.202 L -232.59300000000002 -555.514 L -253.48800000000003 -555.514 L -253.48800000000003 -285.062 C -253.48800000000003 -138.734 -139.77400000000003 -19.687999999999988 -2.842170943040401e-14 -19.687999999999988 C 21.05499999999997 -19.687999999999988 41.78499999999997 -22.366999999999987 61.91999999999997 -27.66199999999999 C 56.119999999999976 -19.133999999999986 51.312999999999974 -11.324999999999989 47.525999999999975 -4.302999999999987 C 31.926 -1.447 16.05 0 0 0" stroke-linecap="round" />
</g>
		<g transform="matrix(0.23130035687299325 0 0 -0.23130035687299325 47.89812584067852 22.35686128013458)"  >
<path style="stroke: none; stroke-width: 1; stroke-dasharray: none; stroke-linecap: butt; stroke-dashoffset: 0; stroke-linejoin: miter; stroke-miterlimit: 4; fill: rgb(216,241,160); fill-rule: nonzero; opacity: 1;"  paint-order="stroke"  transform=" translate(18.491500000000002, 160.3385)" d="M 0 0 C -6.648 1.05 -13.344 1.748 -20.06 2.123 C -18.622999999999998 -9.378 -17.889 -21.016 -17.889 -32.660000000000004 L -17.889 -303.112 L -38.783 -303.112 L -38.783 -322.8 L 1.8 -322.8 L 1.8 -32.66 C 1.8 -21.738 1.183 -10.822 0 0" stroke-linecap="round" />
</g>
</g>
</g>
</svg>